<?xml version="1.0" encoding="utf-8"?>
<!-- Generator: Adobe Illustrator 22.0.0, SVG Export Plug-In . SVG Version: 6.00 Build 0)  -->
<svg version="1.1" class="logo" xmlns="http://www.w3.org/2000/svg" xmlns:xlink="http://www.w3.org/1999/xlink" x="0px" y="0px"
	 viewBox="0 0 205 148.5" style="enable-background:new 0 0 205 148.5;" xml:space="preserve">
<g id="Logo_1">
	<g>
		<polygon points="76.7,0.1 93.4,0.1 9,64.5 58.1,148.2 42.5,148.2 0.2,64.5 		"/>
		<path d="M129.1,0c0,0,47.4,14.2,47.4,36.4c0,15.3-47.4,27.7-47.4,27.7s43.4,17.8,43.4,41.9c0.1,21.9-79.1,42.1-79.1,42.1
			c18.7,0,107.8,0.2,107.8-43.9c0-30.1-35.6-39.8-35.6-39.8c17.5-4.3,38.7-8.3,38.7-30.1C204.3,0,129.1,0,129.1,0z"/>
	</g>
	<polygon points="104.7,0 70.2,148.1 80.8,148.1 115.2,0 	"/>
</g>
</svg>
